<svg height="128" width="128" xmlns="http://www.w3.org/2000/svg"><rect x="2" y="2" width="124" height="124" rx="14" fill="#363d52" stroke="#212532" stroke-width="4"/><g transform="scale(.101) translate(122 122)"><path fill="#fff" d="M105 673v33q407 354 814 0v-33z"/><path fill="#478cbf" d="m105 673 152 14q12 1 15 12l17 99 67 16 67-16 17-99q3-11 15-12l152-14V427q30-39 56-81-35-59-83-108-43 20-82 47-40-37-88-64 7-51 8-102-59-28-123-42-26 43-46 89-49-7-98 0-20-46-46-89-64 14-123 42 1 51 8 102-48 27-88 64-39-27-82-47-48 49-83 108 26 42 56 81zm0 33v39c0 276 243 496 543 496s543-220 543-496v-39c-407 354-814 0-814 0z"/><path fill="#478cbf" d="m471 435 51 0 0-129-51 0z"/><path fill="#478cbf" d="m471 723 51 0 0-230-51 0z"/></g></svg>